<?xml version="1.0" encoding="utf-8"?>
<!-- Generator: Adobe Illustrator 24.2.1, SVG Export Plug-In . SVG Version: 6.00 Build 0)  -->
<svg version="1.1" id="Facebook" xmlns="http://www.w3.org/2000/svg" xmlns:xlink="http://www.w3.org/1999/xlink" x="0px" y="0px"
	 viewBox="0 0 30 30" style="enable-background:new 0 0 30 30;" xml:space="preserve">
<style type="text/css">
	.st0{fill:none;stroke:#ffffff;stroke-width:0.7904;stroke-miterlimit:10;}
	.st1{fill:#ffffff;}
</style>
<g>
	<circle class="st0" cx="15" cy="15" r="14"/>
	<path class="st1" d="M13.1,23.8v-0.1c0-2.6,0-5.2,0-7.8v-0.1H13c-0.8,0-1.7,0-2.5,0c-0.1,0-0.1,0-0.1-0.1c0-1,0-2,0-2.9
		c0-0.1,0-0.1,0.1-0.1c0.8,0,1.7,0,2.5,0h0.1v-0.1c0-0.8,0-1.6,0-2.4c0-0.7,0.1-1.3,0.4-1.9c0.4-0.8,1-1.4,1.8-1.7
		c0.6-0.2,1.1-0.3,1.7-0.3c0.7,0,1.4,0,2,0.1c0.1,0,0.3,0,0.4,0s0.1,0,0.1,0.1c0,0.4,0,0.8,0,1.2c0,0.5,0,1,0,1.4
		c0,0.1,0,0.1-0.1,0.1c-0.5,0-1,0-1.5,0c-0.2,0-0.5,0-0.7,0.1c-0.4,0.1-0.7,0.4-0.8,0.8c0,0.2-0.1,0.4-0.1,0.5c0,0.7,0,1.3,0,2
		c0,0,0,0,0,0.1h0.1c1,0,1.9,0,2.9,0c0.1,0,0.1,0,0.1,0.1c-0.1,0.5-0.1,1-0.2,1.6c-0.1,0.4-0.1,0.9-0.2,1.3c0,0.2,0,0.2-0.2,0.2
		c-0.8,0-1.6,0-2.4,0h-0.1V16c0,2.6,0,5.2,0,7.7c0,0.1,0,0.1,0,0.2C15.3,23.8,14.2,23.8,13.1,23.8z"/>
</g>
</svg>
