<?xml version="1.0" encoding="utf-8"?>
<!-- Generator: Adobe Illustrator 21.1.0, SVG Export Plug-In . SVG Version: 6.00 Build 0)  -->
<svg version="1.1" id="Instagram" xmlns="http://www.w3.org/2000/svg" xmlns:xlink="http://www.w3.org/1999/xlink" x="0px" y="0px"
	 viewBox="0 0 30 30" style="enable-background:new 0 0 30 30;" xml:space="preserve">
<style type="text/css">
	.st0{fill:none;stroke:#FFFFFF;stroke-width:0.7904;stroke-miterlimit:10;}
	.st1{fill:#FFFFFF;}
</style>
<g>
	<circle class="st0" cx="15" cy="15" r="14"/>
	<g>
		<path class="st1" d="M18.5,23.6h-7c-2.7,0-4.9-2.2-4.9-4.9v-7.4c0-2.7,2.2-4.9,4.9-4.9h7c2.7,0,4.9,2.2,4.9,4.9v7.4
			C23.4,21.4,21.2,23.6,18.5,23.6z M18.5,22.3c0.9,0,1.8-0.4,2.5-1.1c0.7-0.7,1.1-1.6,1.1-2.5v-7.4c0-0.9-0.4-1.8-1.1-2.5
			c-0.7-0.7-1.6-1.1-2.5-1.1h-7c-0.9,0-1.8,0.4-2.5,1.1S8,10.3,8,11.3v7.4c0,0.9,0.4,1.8,1.1,2.5s1.6,1.1,2.5,1.1H18.5z"/>
		<path class="st1" d="M19.6,14.9c0,2.5-2.1,4.6-4.6,4.6s-4.6-2.1-4.6-4.6s2.1-4.6,4.6-4.6S19.6,12.4,19.6,14.9z M15,11.9
			c-1.7,0-3,1.3-3,3s1.3,3,3,3s3-1.3,3-3S16.7,11.9,15,11.9z"/>
		<circle class="st1" cx="19.7" cy="10.3" r="1.1"/>
	</g>
</g>
</svg>
