<?xml version="1.0" encoding="utf-8"?>
<!-- Generator: Adobe Illustrator 21.1.0, SVG Export Plug-In . SVG Version: 6.00 Build 0)  -->
<svg version="1.1" id="Mail" xmlns="http://www.w3.org/2000/svg" xmlns:xlink="http://www.w3.org/1999/xlink" x="0px" y="0px"
	 viewBox="0 0 30 30" style="enable-background:new 0 0 30 30;" xml:space="preserve">
<style type="text/css">
	.st0{fill:none;stroke:#000000;stroke-width:0.7904;stroke-miterlimit:10;}
	.st1{fill:#000000;}
</style>
<g>
	<g>
		<circle class="st0" cx="15" cy="15" r="14"/>
	</g>
	<path class="st1" d="M21.9,8.7H8.1c-0.4,0-0.7,0.1-1,0.4c-0.3,0.3-0.4,0.6-0.4,1v9.8c0,0.8,0.6,1.4,1.4,1.4h13.9
		c0.8,0,1.4-0.6,1.4-1.4v-9.8C23.3,9.3,22.7,8.7,21.9,8.7z M21.9,20.4H8.1c0,0,0,0,0,0l5.3-5.4l0.8,0.7c0.2,0.2,0.5,0.3,0.8,0.3
		c0.3,0,0.6-0.1,0.8-0.3l0.8-0.7L21.9,20.4C22,20.4,21.9,20.4,21.9,20.4z M7.6,19.9v-9.8c0,0,0-0.1,0-0.1l5.3,4.5L7.6,19.9
		C7.6,19.9,7.6,19.9,7.6,19.9z M21.8,9.6l-5.1,4.5l-0.3,0.2l-0.3,0.2l-0.8,0.7c-0.2,0.2-0.6,0.2-0.8,0l-0.8-0.7l-0.3-0.2l-0.3-0.2
		L8.1,9.6H21.8z M17.2,14.6l5.3-4.6c0,0,0,0.1,0,0.1v9.8c0,0,0,0,0,0L17.2,14.6z"/>
</g>
</svg>
