<?xml version="1.0" encoding="utf-8"?>
<!-- Generator: Adobe Illustrator 21.1.0, SVG Export Plug-In . SVG Version: 6.00 Build 0)  -->
<svg version="1.1" id="Phone" xmlns="http://www.w3.org/2000/svg" xmlns:xlink="http://www.w3.org/1999/xlink" x="0px" y="0px"
	 viewBox="0 0 30 30" style="enable-background:new 0 0 30 30;" xml:space="preserve">
<style type="text/css">
	.st0{fill:none;stroke:#000000;stroke-width:0.7904;stroke-miterlimit:10;}
	.st1{fill:#000000;}
</style>
<g>
	<g>
		<circle class="st0" cx="15" cy="15" r="14"/>
	</g>
	<path class="st1" d="M16.5,18.4c0,0,0.5,0,0.8-0.3l0.6-0.7c0.3-0.4,0.9-0.6,1.6-0.2c0.4,0.2,1,0.6,1.4,0.9c0.4,0.3,1.3,1,1.3,1
		c0.4,0.3,0.5,0.9,0.2,1.4c0,0,0,0,0,0c-0.3,0.5-0.7,1-1.2,1.4c0,0,0,0,0,0c-0.4,0.3-0.8,0.5-1.2,0.6c0,0-0.1,0-0.2,0
		c-0.2,0-0.3,0-0.5-0.1l0,0c-0.6-0.2-1.6-0.6-3.3-1.5c-1.1-0.6-2-1.2-2.7-1.8c-0.4-0.3-0.8-0.7-1.2-1.1c0,0,0,0,0,0c0,0,0,0,0,0l0,0
		l0,0c0,0,0,0,0,0c0,0,0,0,0,0c-0.4-0.4-0.8-0.8-1.1-1.2c-0.6-0.8-1.2-1.7-1.8-2.7c-0.9-1.7-1.3-2.7-1.5-3.3l0,0
		c-0.1-0.2-0.1-0.3-0.1-0.5c0-0.1,0-0.1,0-0.2c0-0.4,0.2-0.8,0.6-1.2c0,0,0,0,0,0C8.5,8.3,9,7.9,9.5,7.6c0,0,0,0,0,0
		c0.5-0.3,1.1-0.2,1.4,0.2c0,0,0.7,0.9,1,1.3c0.3,0.4,0.7,1,0.9,1.4c0.4,0.6,0.1,1.3-0.2,1.6l-0.7,0.6c-0.4,0.3-0.3,0.8-0.3,0.8
		S12.6,17.4,16.5,18.4z"/>
</g>
</svg>
