<?xml version="1.0" encoding="utf-8"?>
<!-- Generator: Adobe Illustrator 21.1.0, SVG Export Plug-In . SVG Version: 6.00 Build 0)  -->
<svg version="1.1" id="Twitter" xmlns="http://www.w3.org/2000/svg" xmlns:xlink="http://www.w3.org/1999/xlink" x="0px" y="0px"
	 viewBox="0 0 30 30" style="enable-background:new 0 0 30 30;" xml:space="preserve">
<style type="text/css">
	.st0{fill:none;stroke:#FFFFFF;stroke-width:0.7904;stroke-miterlimit:10;}
	.st1{fill:#FFFFFF;}
</style>
<g>
	<circle class="st0" cx="15" cy="15" r="14"/>
	<path class="st1" d="M23.8,9.5c-0.6,0.3-1.3,0.5-2.1,0.6c0.7-0.4,1.3-1.2,1.6-2C22.6,8.5,21.9,8.8,21,9c-0.7-0.7-1.6-1.1-2.6-1.1
		c-2,0-3.6,1.6-3.6,3.6c0,0.3,0,0.6,0.1,0.8c-3-0.2-5.7-1.6-7.5-3.8C7.1,9,6.9,9.7,6.9,10.3c0,1.3,0.6,2.4,1.6,3
		c-0.6,0-1.2-0.2-1.6-0.5c0,0,0,0,0,0c0,1.8,1.2,3.2,2.9,3.5c-0.3,0.1-0.6,0.1-1,0.1c-0.2,0-0.5,0-0.7-0.1C8.6,18,10,19,11.5,19.1
		c-1.2,1-2.8,1.5-4.5,1.5c-0.3,0-0.6,0-0.9-0.1c1.6,1,3.5,1.6,5.5,1.6c6.7,0,10.3-5.5,10.3-10.3c0-0.2,0-0.3,0-0.5
		C22.7,10.9,23.3,10.3,23.8,9.5z"/>
</g>
</svg>
